<svg xmlns="http://www.w3.org/2000/svg" viewBox="0 0 663.7796 393.82281"><title>logo</title><g id="Camada_2" data-name="Camada 2"><g id="Camada_1-2" data-name="Camada 1"><g id="Camada_2-2" data-name="Camada 2"><path d="M663.7796,108.68a108.74173,108.74173,0,0,1-129.45,106.69l20.77-65.6-84.45,27.32a108.75118,108.75118,0,0,1-10.67-121.02,91.00836,91.00836,0,0,1,84.73,8.94,64.88446,64.88446,0,0,0-1.79,15.25c0,26.65,15.72,48.25,35.11,48.25,19.4,0,35.12-21.6,35.12-48.25s-15.72-48.25-35.12-48.25a27.0213,27.0213,0,0,0-13.87,3.92,126.4055,126.4055,0,0,0-63.65-21.24,108.70056,108.70056,0,0,1,163.27,93.99Z"/><path d="M88.06055,203.0943q-9.91407,5.63526-27.021,5.63672-22.35645,0-34.40771-10.78809-12.05494-10.79-12.05225-32.36719V138.36041H0v-32.0747H14.57959V76.543H58.5127v29.74268h21.772v32.0747H58.5127v26.82666q0,4.86109,2.52685,7.58106a8.59048,8.59048,0,0,0,6.60938,2.72168,17.17768,17.17768,0,0,0,9.91406-2.916Z"/><path d="M189.53223,111.0484q14.77074,12.53834,14.77392,38.58691v57.15235H163.4834V192.79059q-7.5813,15.94189-30.13086,15.94043-12.63867,0-21.48047-4.37305a30.80729,30.80729,0,0,1-17.98144-28.67383q0-15.74561,12.05224-23.91064,12.05127-8.16431,36.5459-8.16455h17.68994q-2.14087-12.438-20.02246-12.44092a50.2118,50.2118,0,0,0-14.57959,2.23535,41.00357,41.00357,0,0,0-12.63574,6.12354l-13.9961-28.96485a77.27855,77.27855,0,0,1,22.06348-8.84472,106.62481,106.62481,0,0,1,25.75733-3.20752Q174.75806,98.50983,189.53223,111.0484Zm-34.602,68.71826a14.60784,14.60784,0,0,0,5.44287-7.58154v-7.38721H149.4873q-13.41357,0-13.41357,8.94239a7.73732,7.73732,0,0,0,2.81885,6.12353,11.355,11.355,0,0,0,7.67871,2.42969A14.4523,14.4523,0,0,0,154.93018,179.76666Z"/><path d="M223.35547,62.54694h43.9331V206.78766h-43.9331Z"/><path d="M337.65625,174.129l-6.998,7.58154v25.07715H286.72559V62.54694H330.6582v68.81543l30.51953-30.9087h51.90332L369.14844,146.525l47.43261,60.2627H363.51074Z"/><path d="M88.06055,203.0943q-9.91407,5.63526-27.021,5.63672-22.35645,0-34.40771-10.78809-12.05494-10.79-12.05225-32.36719V138.36041H0v-32.0747H14.57959V76.543H58.5127v29.74268h21.772v32.0747H58.5127v26.82666q0,4.86109,2.52685,7.58106a8.59048,8.59048,0,0,0,6.60938,2.72168,17.17768,17.17768,0,0,0,9.91406-2.916Z"/><path d="M189.53223,111.0484q14.77074,12.53834,14.77392,38.58691v57.15235H163.4834V192.79059q-7.5813,15.94189-30.13086,15.94043-12.63867,0-21.48047-4.37305a30.80729,30.80729,0,0,1-17.98144-28.67383q0-15.74561,12.05224-23.91064,12.05127-8.16431,36.5459-8.16455h17.68994q-2.14087-12.438-20.02246-12.44092a50.2118,50.2118,0,0,0-14.57959,2.23535,41.00357,41.00357,0,0,0-12.63574,6.12354l-13.9961-28.96485a77.27855,77.27855,0,0,1,22.06348-8.84472,106.62481,106.62481,0,0,1,25.75733-3.20752Q174.75806,98.50983,189.53223,111.0484Zm-34.602,68.71826a14.60784,14.60784,0,0,0,5.44287-7.58154v-7.38721H149.4873q-13.41357,0-13.41357,8.94239a7.73732,7.73732,0,0,0,2.81885,6.12353,11.355,11.355,0,0,0,7.67871,2.42969A14.4523,14.4523,0,0,0,154.93018,179.76666Z"/><path d="M223.35547,62.54694h43.9331V206.78766h-43.9331Z"/><path d="M337.65625,174.129l-6.998,7.58154v25.07715H286.72559V62.54694H330.6582v68.81543l30.51953-30.9087h51.90332L369.14844,146.525l47.43261,60.2627H363.51074Z"/><path d="M100.11279,296.1402q14.77075,12.5376,14.77393,38.58691v57.15137H74.064V377.88239q-7.58128,15.94188-30.13085,15.94042-12.63868,0-21.48047-4.374A30.80595,30.80595,0,0,1,4.47119,360.77594q0-15.74707,12.05225-23.91113,12.05127-8.16358,36.5459-8.16407H70.75928q-2.14088-12.438-20.02246-12.4414a50.21175,50.21175,0,0,0-14.57959,2.23535,40.99211,40.99211,0,0,0-12.63575,6.12305L9.52539,295.65387a77.25042,77.25042,0,0,1,22.06348-8.84473,106.60167,106.60167,0,0,1,25.75732-3.208Q85.33862,283.60114,100.11279,296.1402ZM65.51074,364.858a14.60519,14.60519,0,0,0,5.44287-7.582v-7.38672H60.06787q-13.41357,0-13.41357,8.94238a7.737,7.737,0,0,0,2.81884,6.12305,11.35281,11.35281,0,0,0,7.67872,2.43066A14.45266,14.45266,0,0,0,65.51074,364.858Z"/><path d="M230.647,290.30817a48.54185,48.54185,0,0,1,18.66162,19.24511q6.898,12.5376,6.90137,29.06153,0,16.5249-6.90137,29.15918A48.37318,48.37318,0,0,1,230.647,387.11578a51.10484,51.10484,0,0,1-25.75732,6.707q-19.637,0-29.15918-10.69238v8.74805H133.936V247.63824h43.9331v45.09961q9.33105-9.13476,27.02051-9.13671A51.095,51.095,0,0,1,230.647,290.30817ZM206.8335,354.06891q4.85742-5.54,4.85986-15.4541,0-9.91407-4.85986-15.35742a16.93924,16.93924,0,0,0-24.88233,0q-4.86108,5.44482-4.85986,15.35742,0,9.91406,4.85986,15.4541a16.73947,16.73947,0,0,0,24.88233,0Z"/><path d="M294.40771,386.72711a54.58348,54.58348,0,0,1-22.064-19.63379,54.86368,54.86368,0,0,1,0-56.957,53.90618,53.90618,0,0,1,22.064-19.53711q14.09181-6.99756,31.78321-6.998,17.88207,0,31.978,6.998a53.24976,53.24976,0,0,1,21.96582,19.53711,55.443,55.443,0,0,1,0,56.957A53.91439,53.91439,0,0,1,358.169,386.72711q-14.09766,7.09863-31.978,7.0957Q308.5,393.82281,294.40771,386.72711Zm44.22413-32.6582q4.85742-5.54,4.86035-15.4541,0-9.91407-4.86035-15.35742a16.93868,16.93868,0,0,0-24.88184,0q-4.86182,5.44482-4.85986,15.35742,0,9.91406,4.85986,15.4541a16.73892,16.73892,0,0,0,24.88184,0Z"/><path d="M518.05566,285.54547v106.333H476.26172v-10.1084a37.65476,37.65476,0,0,1-13.60742,9.03906,45.35715,45.35715,0,0,1-16.52442,3.01367q-20.21923,0-32.46289-12.34472-12.24756-12.34131-12.24707-37.22656V285.54547h43.93262v51.125q0,10.88966,3.499,15.55176,3.49952,4.66552,10.30274,4.665a13.33866,13.33866,0,0,0,10.69238-5.15137q4.27295-5.14746,4.27637-16.23144v-49.959Z"/><path d="M615.83594,388.18512q-9.91407,5.63526-27.02051,5.63769-22.3579,0-34.4082-10.78906-12.05566-10.78857-12.05274-32.36719V323.45172h-14.5791V291.3775h14.5791V261.63434h43.9336V291.3775h21.77246v32.07422H586.28809v26.82617q0,4.86181,2.52734,7.582a8.589,8.589,0,0,0,6.60937,2.72071,17.18282,17.18282,0,0,0,9.91407-2.915Z"/></g></g></g></svg>